PathFileType	4	(X/Y/Z)	C:/Users/opensim2020/Desktop/walking_exp_matlab/subject02_walking05_straight_03.trc																																																																																																																												
DataRate	CameraRate	NumFrames	NumMarkers	Units	OrigDataRate	OrigDataStartFrame	OrigNumFrames																																																																																																																								
100	100	4	42	mm	100	2077	224																																																																																																																								
Frame#	Time	LFHD			RFHD			LBHD			RBHD			C7			T10			CLAV			STRN			RBAK			LSHO			LUPA			LELB			LFRM			LWRA			LWRB			LFIN			RSHO			RUPA			RELB			RFRM			RWRA			RWRB			RFIN			LASI			RASI			LPSI			RPSI			LTHI			LKNE			LTIB			LANK			LHEE			LTOE			RTHI			RKNE			RTIB			RANK			RHEE			RTOE			*39			*40			*41		
		X1	Y1	Z1	X2	Y2	Z2	X3	Y3	Z3	X4	Y4	Z4	X5	Y5	Z5	X6	Y6	Z6	X7	Y7	Z7	X8	Y8	Z8	X9	Y9	Z9	X10	Y10	Z10	X11	Y11	Z11	X12	Y12	Z12	X13	Y13	Z13	X14	Y14	Z14	X15	Y15	Z15	X16	Y16	Z16	X17	Y17	Z17	X18	Y18	Z18	X19	Y19	Z19	X20	Y20	Z20	X21	Y21	Z21	X22	Y22	Z22	X23	Y23	Z23	X24	Y24	Z24	X25	Y25	Z25	X26	Y26	Z26	X27	Y27	Z27	X28	Y28	Z28	X29	Y29	Z29	X30	Y30	Z30	X31	Y31	Z31	X32	Y32	Z32	X33	Y33	Z33	X34	Y34	Z34	X35	Y35	Z35	X36	Y36	Z36	X37	Y37	Z37	X38	Y38	Z38	X39	Y39	Z39	X40	Y40	Z40	X41	Y41	Z41	X42	Y42	Z42
																																																																																																																															
1	0	-1079.23462	1758.37097	-927.3064	-1080.64233	1737.84399	-780.79437	-1193.43884	1662.94006	-938.11267	-1210.44189	1639.6698	-797.08423	-1241.84473	1529.37744	-853.93469	-1297.11121	1256.21069	-847.8598	-1102.7063	1463.62085	-886.72626	-1051.79639	1290.82373	-888.68805	-1288.65808	1356.25232	-782.37494	-1199.95654	1510.08972	-1040.63623	-1254.24146	1323.59863	-1130.79993	-1277.72827	1189.02515	-1156.08826	-1284.33423	1059.25549	-1191.70154	-1233.11121	928.6427	-1196.37256	-1286.35254	938.22308	-1213.14099	-1272.86841	874.50867	-1231.2323	-1133.81848	1494.8446	-682.99493	-1132.95776	1302.17273	-596.00378	-1102.12231	1158.41199	-585.23883	-1058.81335	1046.25146	-571.65253	-999.14111	926.4505	-597.48431	-1041.64001	917.19684	-559.4563	-996.29816	860.20105	-561.33588	-1093.02319	994.55475	-1018.40894	-1073.7301	967.98053	-766.89484	-1292.99731	1044.90564	-921.49518	-1288.26245	1040.92761	-805.31818	-1117.16809	697.84613	-1109.51526	-1090.44373	500.15237	-1097.14563	-1148.33826	316.71396	-1093.36389	-1147.54004	93.29898	-1075.60254	-1165.79443	66.28037	-1016.12164	-1007.08539	47.97508	-1130.49902	-1175.96277	661.724	-720.64172	-1203.14929	456.15445	-777.30359	-1256.60938	275.2496	-779.80463	-1289.11902	86.3483	-829.138	-1329.90735	33.78291	-885.5025	-1136.96594	30.48052	-830.41681	-1190.9397	1804.57581	-837.21851	2845.18066	1033.724	-3360.26978	NaN	NaN	NaN
2	0.01	-1073.03406	1758.14075	-927.18658	-1074.84607	1737.86169	-781.44849	-1187.60608	1662.66797	-939.04279	-1204.01917	1639.23267	-798.00122	-1235.21814	1528.92871	-854.99512	-1290.47437	1255.89978	-849.19238	-1096.00439	1463.30713	-887.26892	-1044.96362	1290.43909	-888.76801	-1282.74121	1356.25183	-783.50385	-1192.47046	1509.62329	-1041.39673	-1247.09338	1323.29065	-1131.18274	-1271.32239	1188.58167	-1156.75623	-1278.54248	1059.12524	-1192.45081	-1227.83606	928.60059	-1197.92334	-1280.66223	937.93469	-1214.18811	-1267.92725	874.30322	-1232.44788	-1128.03162	1494.90723	-683.76746	-1126.01135	1301.68518	-596.98779	-1093.67383	1158.19373	-586.63031	-1050.07104	1046.50208	-573.58978	-988.69495	926.8316	-599.63519	-1031.1604	917.51154	-561.85065	-985.40417	861.01184	-564.04681	-1085.54028	994.60864	-1018.97559	-1068.1814	967.62079	-767.39075	-1286.052	1044.62219	-923.13153	-1282.24805	1040.43335	-807.02319	-1107.83215	698.07697	-1110.40027	-1078.89868	500.4913	-1097.71204	-1131.84729	315.29907	-1096.32666	-1123.83911	91.54232	-1080.89075	-1141.42053	63.19264	-1021.90027	-981.22998	50.81087	-1133.76404	-1172.49768	661.46814	-721.85614	-1201.16833	455.60803	-778.74744	-1255.66064	275.48251	-780.5116	-1288.85193	86.55723	-829.58728	-1329.7196	34.10152	-885.93451	-1136.88062	30.44156	-830.38104	-1185.42627	1804.10327	-838.07916	2845.08545	1033.88806	-3360.09375	NaN	NaN	NaN
3	0.02	-1067.32837	1758.24231	-928.50653	-1068.95227	1737.81165	-782.40259	-1181.21326	1662.00757	-939.98022	-1197.76733	1638.40222	-799.02405	-1228.54883	1528.45105	-856.09253	-1283.7699	1255.4917	-850.70062	-1089.08569	1462.77551	-887.84985	-1038.09155	1289.83325	-888.8844	-1275.5011	1355.31628	-784.90271	-1184.89819	1509.09521	-1042.44849	-1239.86487	1322.86011	-1132.18579	-1264.58142	1188.39441	-1157.4563	-1272.63293	1058.8302	-1193.33081	-1222.33105	928.2077	-1199.34778	-1275.4325	937.47833	-1214.98328	-1263.05786	874.13995	-1233.54565	-1121.46741	1494.45667	-684.59705	-1118.44446	1301.30188	-598.01312	-1085.21265	1157.83752	-588.0498	-1040.10278	1046.44507	-575.46631	-978.63831	927.51624	-602.90973	-1020.63519	917.62024	-564.36377	-974.40955	861.50946	-566.89331	-1078.14441	994.58539	-1019.57617	-1062.26819	967.13977	-767.68787	-1279.11243	1044.14771	-924.69452	-1276.20557	1039.81067	-808.7077	-1098.50842	698.13361	-1111.24866	-1067.39001	500.78683	-1098.33313	-1115.35376	314.01236	-1099.24792	-1100.72058	90.38337	-1086.15051	-1118.55261	60.93024	-1027.39075	-955.77045	53.7604	-1136.46057	-1168.64441	661.14276	-723.03058	-1199.27698	455.89294	-779.14624	-1254.63025	275.6929	-781.26654	-1288.73132	86.74369	-830.06848	-1329.19653	34.02713	-886.46967	-1136.78479	30.33198	-830.34845	-1179.85645	1803.62048	-839.10034	NaN	NaN	NaN	NaN	NaN	NaN
4	0.03	-1061.3634	1757.73145	-929.38788	-1063.06934	1737.56567	-783.31018	-1174.76465	1661.27686	-941.01031	-1191.46179	1637.86096	-799.90601	-1221.79871	1527.86951	-857.29059	-1277.08252	1255.0675	-852.19293	-1081.96655	1462.20789	-888.27185	-1031.2384	1289.08936	-889.05481	-1268.94165	1355.04395	-786.44427	-1177.18518	1508.31262	-1043.57166	-1232.44666	1322.25427	-1133.62073	-1257.79895	1187.71887	-1158.32751	-1266.38843	1058.31592	-1194.2168	-1216.63867	927.39478	-1200.67188	-1269.61853	937.06335	-1215.80811	-1257.81628	873.61346	-1234.60815	-1115.19275	1493.91748	-685.37708	-1112.07104	1300.78137	-599.05292	-1076.9021	1157.35071	-589.45654	-1030.85522	1046.27112	-577.67566	-968.28796	927.8241	-605.06464	-1010.13727	917.57208	-567.02405	-963.11133	861.81573	-569.92145	-1070.59192	994.42889	-1020.20837	-1055.67944	966.74091	-767.55658	-1272.16052	1043.5033	-926.26666	-1269.77966	1038.80017	-810.56287	-1089.2179	698.13959	-1112.26453	-1056.29382	501.17337	-1099.16052	-1099.1897	312.98688	-1101.9751	-1077.25806	89.12396	-1090.66284	-1096.12219	59.28707	-1032.81824	-930.93506	56.78555	-1138.7229	-1164.97534	660.92365	-724.26239	-1196.57251	455.38669	-780.52228	-1253.69434	276.07755	-781.81146	-1288.52698	87.04441	-830.55981	-1329.10095	34.33957	-886.78473	-1136.87097	30.36841	-830.30554	-1174.22913	1802.83752	-840.13867	NaN	NaN	NaN	NaN	NaN	NaN
